<svg width="21" height="20" viewBox="0 0 21 20" fill="none" xmlns="http://www.w3.org/2000/svg">
<path d="M18.44 11C18.22 11 17.99 10.93 17.77 10.88C17.3245 10.7818 16.8866 10.6515 16.46 10.49C15.9961 10.3212 15.4861 10.33 15.0283 10.5146C14.5704 10.6992 14.1971 11.0466 13.98 11.49L13.76 11.94C12.786 11.3982 11.891 10.7252 11.1 9.93999C10.3147 9.14901 9.6418 8.25399 9.09998 7.27999L9.51998 6.99999C9.96334 6.78291 10.3108 6.40952 10.4954 5.95168C10.68 5.49384 10.6888 4.9839 10.52 4.51999C10.3612 4.09241 10.2309 3.65479 10.13 3.20999C10.08 2.98999 10.04 2.75999 10.01 2.52999C9.88854 1.82561 9.5196 1.18773 8.9696 0.731229C8.4196 0.274727 7.72467 0.029599 7.00998 0.0399902L4.00998 0.0399902C3.57901 0.0359436 3.15223 0.124804 2.75869 0.300521C2.36515 0.476238 2.01409 0.734686 1.72941 1.05827C1.44473 1.38186 1.23311 1.76298 1.10897 2.1757C0.98482 2.58842 0.951058 3.02305 1.00998 3.44999C1.54272 7.63937 3.45601 11.5319 6.44763 14.5126C9.43925 17.4934 13.3387 19.3925 17.53 19.91H17.91C18.6474 19.9111 19.3594 19.6405 19.91 19.15C20.2263 18.867 20.4791 18.5202 20.6514 18.1323C20.8238 17.7444 20.9119 17.3244 20.91 16.9V13.9C20.8977 13.2054 20.6448 12.5365 20.1943 12.0077C19.7439 11.4788 19.1238 11.1226 18.44 11ZM18.94 17C18.9398 17.142 18.9094 17.2823 18.8508 17.4116C18.7921 17.5409 18.7066 17.6563 18.6 17.75C18.4882 17.8465 18.3576 17.9185 18.2164 17.9616C18.0752 18.0046 17.9265 18.0177 17.78 18C14.0349 17.5198 10.5562 15.8065 7.89269 13.1303C5.22917 10.4541 3.53239 6.96733 3.06998 3.21999C3.05406 3.07351 3.06801 2.92532 3.11098 2.78438C3.15395 2.64344 3.22505 2.51268 3.31998 2.39999C3.41369 2.29332 3.52904 2.20783 3.65836 2.14921C3.78767 2.09058 3.92799 2.06017 4.06998 2.05999L7.06998 2.05999C7.30253 2.05482 7.5296 2.13087 7.71212 2.27506C7.89464 2.41925 8.02119 2.62256 8.06998 2.84999C8.10998 3.12332 8.15998 3.39332 8.21998 3.65999C8.3355 4.18713 8.48924 4.70517 8.67998 5.20999L7.27998 5.85999C7.16028 5.91491 7.0526 5.99294 6.96314 6.08959C6.87367 6.18623 6.80418 6.2996 6.75865 6.42318C6.71312 6.54677 6.69245 6.67812 6.69783 6.80971C6.7032 6.9413 6.73452 7.07054 6.78998 7.18999C8.22918 10.2727 10.7072 12.7508 13.79 14.19C14.0334 14.29 14.3065 14.29 14.55 14.19C14.6747 14.1454 14.7893 14.0764 14.8871 13.9872C14.985 13.8979 15.0641 13.7901 15.12 13.67L15.74 12.27C16.2569 12.4549 16.7846 12.6085 17.32 12.73C17.5866 12.79 17.8566 12.84 18.13 12.88C18.3574 12.9288 18.5607 13.0553 18.7049 13.2378C18.8491 13.4204 18.9252 13.6474 18.92 13.88L18.94 17Z" fill="#050510"/>
</svg>
